<mxfile host="app.diagrams.net" modified="2025-03-04T12:00:00.000Z" agent="Mozilla/5.0" etag="your-etag" version="21.8.2" type="device">
  <diagram id="hydrological_experiment" name="Hydrological Experiment">
    <mxGraphModel dx="1422" dy="798" grid="1" gridSize="10" guides="1" tooltips="1" connect="1" arrows="1" fold="1" page="1" pageScale="1" pageWidth="1100" pageHeight="850" math="0" shadow="0">
      <root>
        <mxCell id="0" />
        <mxCell id="1" parent="0" />
        
        <!-- Model building section -->
        <mxCell id="2" value="" style="rounded=1;whiteSpace=wrap;html=1;fillColor=none;strokeWidth=1.5;" vertex="1" parent="1">
          <mxGeometry x="40" y="60" width="730" height="290" as="geometry" />
        </mxCell>
        
        <mxCell id="3" value="&lt;font style=&quot;font-size: 18px;&quot;&gt;&lt;b&gt;Model building&lt;/b&gt;&lt;/font&gt;" style="text;html=1;strokeColor=none;fillColor=none;align=left;verticalAlign=middle;whiteSpace=wrap;rounded=0;" vertex="1" parent="1">
          <mxGeometry x="50" y="70" width="170" height="30" as="geometry" />
        </mxCell>
        
        <!-- Input boxes in model building section -->
        <mxCell id="4" value="Vegetation data" style="rounded=0;whiteSpace=wrap;html=1;fillColor=none;strokeWidth=1.5;" vertex="1" parent="1">
          <mxGeometry x="70" y="110" width="150" height="40" as="geometry" />
        </mxCell>
        
        <mxCell id="5" value="Climate forcing" style="rounded=0;whiteSpace=wrap;html=1;fillColor=none;strokeWidth=1.5;" vertex="1" parent="1">
          <mxGeometry x="280" y="110" width="150" height="40" as="geometry" />
        </mxCell>
        
        <mxCell id="6" value="Observed runoff" style="rounded=0;whiteSpace=wrap;html=1;fillColor=none;strokeWidth=1.5;" vertex="1" parent="1">
          <mxGeometry x="520" y="110" width="150" height="40" as="geometry" />
        </mxCell>
        
        <!-- PML - HBV Box with dashed line -->
        <mxCell id="7" value="" style="rounded=0;whiteSpace=wrap;html=1;fillColor=none;strokeWidth=1.5;dashed=1;" vertex="1" parent="1">
          <mxGeometry x="110" y="190" width="300" height="60" as="geometry" />
        </mxCell>
        
        <mxCell id="8" value="&lt;b&gt;PML&lt;/b&gt;" style="text;html=1;strokeColor=none;fillColor=none;align=center;verticalAlign=middle;whiteSpace=wrap;rounded=0;fontSize=14;" vertex="1" parent="1">
          <mxGeometry x="120" y="205" width="60" height="30" as="geometry" />
        </mxCell>
        
        <mxCell id="9" value="&lt;b&gt;HBV&lt;/b&gt;" style="text;html=1;strokeColor=none;fillColor=none;align=center;verticalAlign=middle;whiteSpace=wrap;rounded=0;fontSize=14;" vertex="1" parent="1">
          <mxGeometry x="330" y="205" width="60" height="30" as="geometry" />
        </mxCell>
        
        <mxCell id="10" value="Soil water" style="endArrow=classic;startArrow=classic;html=1;rounded=0;exitX=1;exitY=0.5;exitDx=0;exitDy=0;entryX=0;entryY=0.5;entryDx=0;entryDy=0;" edge="1" parent="1" source="8" target="9">
          <mxGeometry width="50" height="50" relative="1" as="geometry">
            <mxPoint x="490" y="440" as="sourcePoint" />
            <mxPoint x="540" y="390" as="targetPoint" />
          </mxGeometry>
        </mxCell>
        
        <mxCell id="11" value="" style="endArrow=classic;html=1;rounded=0;exitX=0.5;exitY=1;exitDx=0;exitDy=0;entryX=0.5;entryY=0;entryDx=0;entryDy=0;" edge="1" parent="1" source="4" target="7">
          <mxGeometry width="50" height="50" relative="1" as="geometry">
            <mxPoint x="490" y="440" as="sourcePoint" />
            <mxPoint x="540" y="390" as="targetPoint" />
          </mxGeometry>
        </mxCell>
        
        <mxCell id="12" value="" style="endArrow=classic;html=1;rounded=0;exitX=0.5;exitY=1;exitDx=0;exitDy=0;entryX=0.5;entryY=0;entryDx=0;entryDy=0;" edge="1" parent="1" source="5" target="7">
          <mxGeometry width="50" height="50" relative="1" as="geometry">
            <mxPoint x="490" y="440" as="sourcePoint" />
            <mxPoint x="540" y="390" as="targetPoint" />
          </mxGeometry>
        </mxCell>
        
        <!-- Output simulation -->
        <mxCell id="13" value="a. Simulated actual evapotranspiration" style="text;html=1;strokeColor=none;fillColor=none;align=left;verticalAlign=middle;whiteSpace=wrap;rounded=0;fontSize=14;" vertex="1" parent="1">
          <mxGeometry x="90" y="290" width="240" height="30" as="geometry" />
        </mxCell>
        
        <mxCell id="14" value="b. simulated runoff" style="text;html=1;strokeColor=none;fillColor=none;align=left;verticalAlign=middle;whiteSpace=wrap;rounded=0;fontSize=14;" vertex="1" parent="1">
          <mxGeometry x="350" y="290" width="150" height="30" as="geometry" />
        </mxCell>
        
        <mxCell id="15" value="" style="endArrow=classic;html=1;rounded=0;exitX=0.25;exitY=1;exitDx=0;exitDy=0;entryX=0.5;entryY=0;entryDx=0;entryDy=0;" edge="1" parent="1" source="7" target="13">
          <mxGeometry width="50" height="50" relative="1" as="geometry">
            <mxPoint x="490" y="440" as="sourcePoint" />
            <mxPoint x="540" y="390" as="targetPoint" />
          </mxGeometry>
        </mxCell>
        
        <mxCell id="16" value="" style="endArrow=classic;html=1;rounded=0;exitX=0.75;exitY=1;exitDx=0;exitDy=0;entryX=0.5;entryY=0;entryDx=0;entryDy=0;" edge="1" parent="1" source="7" target="14">
          <mxGeometry width="50" height="50" relative="1" as="geometry">
            <mxPoint x="490" y="440" as="sourcePoint" />
            <mxPoint x="540" y="390" as="targetPoint" />
          </mxGeometry>
        </mxCell>
        
        <!-- NSE and Calibration -->
        <mxCell id="17" value="NSE" style="text;html=1;strokeColor=none;fillColor=none;align=center;verticalAlign=middle;whiteSpace=wrap;rounded=0;fontSize=14;fontColor=#999999;fontStyle=1" vertex="1" parent="1">
          <mxGeometry x="490" y="180" width="60" height="30" as="geometry" />
        </mxCell>
        
        <mxCell id="18" value="" style="endArrow=classic;html=1;rounded=0;exitX=0;exitY=0.5;exitDx=0;exitDy=0;entryX=1;entryY=0.5;entryDx=0;entryDy=0;" edge="1" parent="1" source="6" target="17">
          <mxGeometry width="50" height="50" relative="1" as="geometry">
            <mxPoint x="490" y="440" as="sourcePoint" />
            <mxPoint x="540" y="390" as="targetPoint" />
          </mxGeometry>
        </mxCell>
        
        <mxCell id="19" value="" style="endArrow=classic;html=1;rounded=0;" edge="1" parent="1">
          <mxGeometry width="50" height="50" relative="1" as="geometry">
            <mxPoint x="520" y="195" as="sourcePoint" />
            <mxPoint x="600" y="195" as="targetPoint" />
          </mxGeometry>
        </mxCell>
        
        <mxCell id="20" value="Calibrated parameters" style="text;html=1;strokeColor=none;fillColor=none;align=center;verticalAlign=middle;whiteSpace=wrap;rounded=0;fontSize=14;" vertex="1" parent="1">
          <mxGeometry x="600" y="180" width="160" height="30" as="geometry" />
        </mxCell>
        
        <!-- HBV-PML Box -->
        <mxCell id="21" value="HBV-PML" style="rounded=0;whiteSpace=wrap;html=1;fillColor=none;strokeWidth=1.5;fontColor=#999999;" vertex="1" parent="1">
          <mxGeometry x="600" y="240" width="100" height="30" as="geometry" />
        </mxCell>
        
        <mxCell id="22" value="" style="endArrow=classic;html=1;rounded=0;exitX=0.5;exitY=1;exitDx=0;exitDy=0;entryX=0.5;entryY=0;entryDx=0;entryDy=0;" edge="1" parent="1" source="20" target="21">
          <mxGeometry width="50" height="50" relative="1" as="geometry">
            <mxPoint x="490" y="440" as="sourcePoint" />
            <mxPoint x="540" y="390" as="targetPoint" />
          </mxGeometry>
        </mxCell>
        
        <mxCell id="23" value="Modified inputs" style="text;html=1;strokeColor=none;fillColor=none;align=center;verticalAlign=middle;whiteSpace=wrap;rounded=0;fontSize=14;" vertex="1" parent="1">
          <mxGeometry x="650" y="290" width="110" height="30" as="geometry" />
        </mxCell>
        
        <mxCell id="24" value="" style="endArrow=classic;html=1;rounded=0;exitX=0.5;exitY=1;exitDx=0;exitDy=0;entryX=0.5;entryY=0;entryDx=0;entryDy=0;" edge="1" parent="1" source="21" target="23">
          <mxGeometry width="50" height="50" relative="1" as="geometry">
            <mxPoint x="490" y="440" as="sourcePoint" />
            <mxPoint x="540" y="390" as="targetPoint" />
          </mxGeometry>
        </mxCell>
        
        <!-- Connection to lower section -->
        <mxCell id="25" value="" style="endArrow=classic;html=1;rounded=0;exitX=0.5;exitY=1;exitDx=0;exitDy=0;" edge="1" parent="1" source="14">
          <mxGeometry width="50" height="50" relative="1" as="geometry">
            <mxPoint x="490" y="440" as="sourcePoint" />
            <mxPoint x="410" y="380" as="targetPoint" />
          </mxGeometry>
        </mxCell>
        
        <!-- NSE feedback to calibrated parameters -->
        <mxCell id="26" value="" style="html=1;shadow=0;dashed=0;align=center;verticalAlign=middle;shape=mxgraph.arrows2.jumpInArrow;dy=15;dx=38;arrowHead=55;fillColor=none;strokeWidth=1.5;" vertex="1" parent="1">
          <mxGeometry x="480" y="230" width="100" height="100" as="geometry" />
        </mxCell>
        
        <!-- Experiments section -->
        <mxCell id="27" value="" style="rounded=1;whiteSpace=wrap;html=1;fillColor=none;strokeWidth=1.5;" vertex="1" parent="1">
          <mxGeometry x="810" y="60" width="260" height="290" as="geometry" />
        </mxCell>
        
        <mxCell id="28" value="&lt;font style=&quot;font-size: 18px;&quot;&gt;&lt;b&gt;Experiments&lt;/b&gt;&lt;/font&gt;" style="text;html=1;strokeColor=none;fillColor=none;align=center;verticalAlign=middle;whiteSpace=wrap;rounded=0;" vertex="1" parent="1">
          <mxGeometry x="855" y="70" width="170" height="30" as="geometry" />
        </mxCell>
        
        <!-- Experiments table -->
        <mxCell id="29" value="Input variables" style="rounded=0;whiteSpace=wrap;html=1;fillColor=#f5f5f5;strokeColor=#666666;fontColor=#333333;" vertex="1" parent="1">
          <mxGeometry x="820" y="110" width="80" height="60" as="geometry" />
        </mxCell>
        
        <mxCell id="30" value="Exp.0" style="rounded=0;whiteSpace=wrap;html=1;fillColor=#f5f5f5;strokeColor=#666666;fontColor=#333333;fillOpacity=30;" vertex="1" parent="1">
          <mxGeometry x="900" y="110" width="35" height="60" as="geometry" />
        </mxCell>
        
        <mxCell id="31" value="Exp.1" style="rounded=0;whiteSpace=wrap;html=1;fillColor=#e1d5e7;strokeColor=#9673a6;fillOpacity=30;" vertex="1" parent="1">
          <mxGeometry x="935" y="110" width="35" height="60" as="geometry" />
        </mxCell>
        
        <mxCell id="32" value="Exp.2" style="rounded=0;whiteSpace=wrap;html=1;fillColor=#dae8fc;strokeColor=#6c8ebf;fillOpacity=30;" vertex="1" parent="1">
          <mxGeometry x="970" y="110" width="35" height="60" as="geometry" />
        </mxCell>
        
        <mxCell id="33" value="Exp.3" style="rounded=0;whiteSpace=wrap;html=1;fillColor=#ffe6cc;strokeColor=#d79b00;fillOpacity=30;" vertex="1" parent="1">
          <mxGeometry x="1005" y="110" width="35" height="60" as="geometry" />
        </mxCell>
        
        <mxCell id="34" value="Exp.4" style="rounded=0;whiteSpace=wrap;html=1;fillColor=#f8cecc;strokeColor=#b85450;fillOpacity=30;" vertex="1" parent="1">
          <mxGeometry x="1040" y="110" width="30" height="60" as="geometry" />
        </mxCell>
        
        <!-- LAI row -->
        <mxCell id="35" value="LAI" style="rounded=0;whiteSpace=wrap;html=1;fillColor=#f5f5f5;strokeColor=#666666;fontColor=#333333;" vertex="1" parent="1">
          <mxGeometry x="820" y="170" width="80" height="30" as="geometry" />
        </mxCell>
        
        <mxCell id="36" value="Obs" style="rounded=0;whiteSpace=wrap;html=1;fillColor=#f5f5f5;strokeColor=#666666;fontColor=#333333;fillOpacity=30;" vertex="1" parent="1">
          <mxGeometry x="900" y="170" width="35" height="30" as="geometry" />
        </mxCell>
        
        <mxCell id="37" value="&lt;font color=&quot;#ff0000&quot;&gt;&lt;b&gt;Stable&lt;/b&gt;&lt;/font&gt;" style="rounded=0;whiteSpace=wrap;html=1;fillColor=#e1d5e7;strokeColor=#9673a6;fillOpacity=30;" vertex="1" parent="1">
          <mxGeometry x="935" y="170" width="35" height="30" as="geometry" />
        </mxCell>
        
        <mxCell id="38" value="Obs" style="rounded=0;whiteSpace=wrap;html=1;fillColor=#dae8fc;strokeColor=#6c8ebf;fillOpacity=30;" vertex="1" parent="1">
          <mxGeometry x="970" y="170" width="35" height="30" as="geometry" />
        </mxCell>
        
        <mxCell id="39" value="Obs" style="rounded=0;whiteSpace=wrap;html=1;fillColor=#ffe6cc;strokeColor=#d79b00;fillOpacity=30;" vertex="1" parent="1">
          <mxGeometry x="1005" y="170" width="35" height="30" as="geometry" />
        </mxCell>
        
        <mxCell id="40" value="&lt;font color=&quot;#ff0000&quot;&gt;&lt;b&gt;Stable&lt;/b&gt;&lt;/font&gt;" style="rounded=0;whiteSpace=wrap;html=1;fillColor=#f8cecc;strokeColor=#b85450;fillOpacity=30;" vertex="1" parent="1">
          <mxGeometry x="1040" y="170" width="30" height="30" as="geometry" />
        </mxCell>
        
        <!-- P row -->
        <mxCell id="41" value="P" style="rounded=0;whiteSpace=wrap;html=1;fillColor=#f5f5f5;strokeColor=#666666;fontColor=#333333;" vertex="1" parent="1">
          <mxGeometry x="820" y="200" width="80" height="30" as="geometry" />
        </mxCell>
        
        <mxCell id="42" value="Obs" style="rounded=0;whiteSpace=wrap;html=1;fillColor=#f5f5f5;strokeColor=#666666;fontColor=#333333;fillOpacity=30;" vertex="1" parent="1">
          <mxGeometry x="900" y="200" width="35" height="30" as="geometry" />
        </mxCell>
        
        <mxCell id="43" value="Obs" style="rounded=0;whiteSpace=wrap;html=1;fillColor=#e1d5e7;strokeColor=#9673a6;fillOpacity=30;" vertex="1" parent="1">
          <mxGeometry x="935" y="200" width="35" height="30" as="geometry" />
        </mxCell>
        
        <mxCell id="44" value="&lt;font color=&quot;#ff0000&quot;&gt;&lt;b&gt;Stable&lt;/b&gt;&lt;/font&gt;" style="rounded=0;whiteSpace=wrap;html=1;fillColor=#dae8fc;strokeColor=#6c8ebf;fillOpacity=30;" vertex="1" parent="1">
          <mxGeometry x="970" y="200" width="35" height="30" as="geometry" />
        </mxCell>
        
        <mxCell id="45" value="Obs" style="rounded=0;whiteSpace=wrap;html=1;fillColor=#ffe6cc;strokeColor=#d79b00;fillOpacity=30;" vertex="1" parent="1">
          <mxGeometry x="1005" y="200" width="35" height="30" as="geometry" />
        </mxCell>
        
        <mxCell id="46" value="&lt;font color=&quot;#ff0000&quot;&gt;&lt;b&gt;Stable&lt;/b&gt;&lt;/font&gt;" style="rounded=0;whiteSpace=wrap;html=1;fillColor=#f8cecc;strokeColor=#b85450;fillOpacity=30;" vertex="1" parent="1">
          <mxGeometry x="1040" y="200" width="30" height="30" as="geometry" />
        </mxCell>
        
        <!-- T row -->
        <mxCell id="47" value="T" style="rounded=0;whiteSpace=wrap;html=1;fillColor=#f5f5f5;strokeColor=#666666;fontColor=#333333;" vertex="1" parent="1">
          <mxGeometry x="820" y="230" width="80" height="30" as="geometry" />
        </mxCell>
        
        <mxCell id="48" value="Obs" style="rounded=0;whiteSpace=wrap;html=1;fillColor=#f5f5f5;strokeColor=#666666;fontColor=#333333;fillOpacity=30;" vertex="1" parent="1">
          <mxGeometry x="900" y="230" width="35" height="30" as="geometry" />
        </mxCell>
        
        <mxCell id="49" value="Obs" style="rounded=0;whiteSpace=wrap;html=1;fillColor=#e1d5e7;strokeColor=#9673a6;fillOpacity=30;" vertex="1" parent="1">
          <mxGeometry x="935" y="230" width="35" height="30" as="geometry" />
        </mxCell>
        
        <mxCell id="50" value="Obs" style="rounded=0;whiteSpace=wrap;html=1;fillColor=#dae8fc;strokeColor=#6c8ebf;fillOpacity=30;" vertex="1" parent="1">
          <mxGeometry x="970" y="230" width="35" height="30" as="geometry" />
        </mxCell>
        
        <mxCell id="51" value="&lt;font color=&quot;#ff0000&quot;&gt;&lt;b&gt;Stable&lt;/b&gt;&lt;/font&gt;" style="rounded=0;whiteSpace=wrap;html=1;fillColor=#ffe6cc;strokeColor=#d79b00;fillOpacity=30;" vertex="1" parent="1">
          <mxGeometry x="1005" y="230" width="35" height="30" as="geometry" />
        </mxCell>
        
        <mxCell id="52" value="&lt;font color=&quot;#ff0000&quot;&gt;&lt;b&gt;Stable&lt;/b&gt;&lt;/font&gt;" style="rounded=0;whiteSpace=wrap;html=1;fillColor=#f8cecc;strokeColor=#b85450;fillOpacity=30;" vertex="1" parent="1">
          <mxGeometry x="1040" y="230" width="30" height="30" as="geometry" />
        </mxCell>
        
        <!-- Experiment outputs section -->
        <mxCell id="53" value="" style="rounded=1;whiteSpace=wrap;html=1;fillColor=none;strokeWidth=1.5;" vertex="1" parent="1">
          <mxGeometry x="40" y="380" width="730" height="290" as="geometry" />
        </mxCell>
        
        <mxCell id="54" value="&lt;font style=&quot;font-size: 18px;&quot;&gt;&lt;b&gt;Experiment outputs&lt;/b&gt;&lt;/font&gt;" style="text;html=1;strokeColor=none;fillColor=none;align=left;verticalAlign=middle;whiteSpace=wrap;rounded=0;" vertex="1" parent="1">
          <mxGeometry x="50" y="620" width="210" height="30" as="geometry" />
        </mxCell>
        
        <!-- Components Of AET -->
        <mxCell id="55" value="a. Components Of AET" style="text;html=1;strokeColor=none;fillColor=none;align=center;verticalAlign=middle;whiteSpace=wrap;rounded=0;fontSize=16;fontStyle=1" vertex="1" parent="1">
          <mxGeometry x="90" y="400" width="180" height="30" as="geometry" />
        </mxCell>
        
        <!-- Triangle with Ei, Et, Es -->
        <mxCell id="56" value="" style="triangle;whiteSpace=wrap;html=1;fillColor=none;strokeWidth=1.5;direction=north" vertex="1" parent="1">
          <mxGeometry x="105" y="440" width="150" height="120" as="geometry" />
        </mxCell>
        
        <mxCell id="57" value="Ei" style="text;html=1;strokeColor=none;fillColor=none;align=center;verticalAlign=middle;whiteSpace=wrap;rounded=0;fontSize=16;" vertex="1" parent="1">
          <mxGeometry x="150" y="450" width="60" height="30" as="geometry" />
        </mxCell>
        
        <mxCell id="58" value="Et" style="text;html=1;strokeColor=none;fillColor=none;align=center;verticalAlign=middle;whiteSpace=wrap;rounded=0;fontSize=16;" vertex="1" parent="1">
          <mxGeometry x="150" y="485" width="60" height="30" as="geometry" />
        </mxCell>
        
        <mxCell id="59" value="Es" style="text;html=1;strokeColor=none;fillColor=none;align=center;verticalAlign=middle;whiteSpace=wrap;rounded=0;fontSize=16;" vertex="1" parent="1">
          <mxGeometry x="150" y="520" width="60" height="30" as="geometry" />
        </mxCell>
        
        <mxCell id="60" value="± Soil water" style="shape=process;whiteSpace=wrap;html=1;backgroundOutline=1;fillColor=none;strokeWidth=1.5;" vertex="1" parent="1">
          <mxGeometry x="290" y="480" width="120" height="30" as="geometry" />
        </mxCell>
        
        <mxCell id="61" value="" style="shape=singleArrow;direction=east;whiteSpace=wrap;html=1;fillColor=none;strokeWidth=1.5;arrowWidth=0.4;arrowSize=0.4;" vertex="1" parent="1">
          <mxGeometry x="240" y="480" width="60" height="30" as="geometry" />
        </mxCell>
        
        <!-- Streamflow signatures -->
        <mxCell id="62" value="b. Streamflow signatures" style="text;html=1;strokeColor=none;fillColor=none;align=center;verticalAlign=middle;whiteSpace=wrap;rounded=0;fontSize=16;fontStyle=1" vertex="1" parent="1">
          <mxGeometry x="440" y="400" width="200" height="30" as="geometry" />
        </mxCell>
        
        <mxCell id="63" value="○ Mean state: Mean" style="text;html=1;strokeColor=none;fillColor=none;align=left;verticalAlign=middle;whiteSpace=wrap;rounded=0;fontSize=14;" vertex="1" parent="1">
          <mxGeometry x="440" y="440" width="200" height="30" as="geometry" />
        </mxCell>
        
        <mxCell id="64" value="○ High flow: Quantile_95; HFI_Q90; MHFD_Q90" style="text;html=1;strokeColor=none;fillColor=none;align=left;verticalAlign=middle;whiteSpace=wrap;rounded=0;fontSize=14;" vertex="1" parent="1">
          <mxGeometry x="440" y="475" width="320" height="30" as="geometry" />
        </mxCell>
        
        <mxCell id="65" value="○ Low flow: Quantile_05; LFI_Q10; MLFD_Q10" style="text;html=1;strokeColor=none;fillColor=none;align=left;verticalAlign=middle;whiteSpace=wrap;rounded=0;fontSize=14;" vertex="1" parent="1">
          <mxGeometry x="440" y="520" width="320" height="30" as="geometry" />
        </mxCell>
        
        <mxCell id="66" value="○ Timing: QT1" style="text;html=1;strokeColor=none;fillColor=none;align=left;verticalAlign=middle;whiteSpace=wrap;rounded=0;fontSize=14;" vertex="1" parent="1">
          <mxGeometry x="440" y="560" width="200" height="30" as="geometry" />
        </mxCell>
        
        <!-- Influences isolating section -->
        <mxCell id="67" value="" style="rounded=1;whiteSpace=wrap;html=1;fillColor=none;strokeWidth=1.5;" vertex="1" parent="1">
          <mxGeometry x="810" y="380" width="260" height="290" as="geometry" />
        </mxCell>
        
        <mxCell id="68" value="&lt;font style=&quot;font-size: 18px;&quot;&gt;&lt;b&gt;Influences isolating&lt;/b&gt;&lt;/font&gt;" style="text;html=1;strokeColor=none;fillColor=none;align=center;verticalAlign=middle;whiteSpace=wrap;rounded=0;" vertex="1" parent="1">
          <mxGeometry x="820" y="390" width="170" height="30" as="geometry" />
        </mxCell>
        
        <!-- Influences rows -->
        <mxCell id="69" value="&lt;span style=&quot;font-size: 14px;&quot;&gt;➢ Influence of LAI = Exp.0- Exp.1&lt;/span&gt;" style="rounded=0;whiteSpace=wrap;html=1;fillColor=#e1d5e7;strokeColor=#9673a6;align=left;spacingLeft=10;fillOpacity=30;" vertex="1" parent="1">
          <mxGeometry x="820" y="430" width="240" height="30" as="geometry" />
        </mxCell>
        
        <mxCell id="70" value="&lt;span style=&quot;font-size: 14px;&quot;&gt;➢ Influence of P = Exp.0- Exp.2&lt;/span&gt;" style="rounded=0;whiteSpace=wrap;html=1;fillColor=#dae8fc;strokeColor=#6c8ebf;align=left;spacingLeft=10;fillOpacity=30;" vertex="1" parent="1">
          <mxGeometry x="820" y="470" width="240" height="30" as="geometry" />
        </mxCell>
        
        <mxCell id="71" value="&lt;span style=&quot;font-size: 14px;&quot;&gt;➢ Influence of T = Exp.0- Exp.3&lt;/span&gt;" style="rounded=0;whiteSpace=wrap;html=1;fillColor=#ffe6cc;strokeColor=#d79b00;align=left;spacingLeft=10;fillOpacity=30;" vertex="1" parent="1">
          <mxGeometry x="820" y="510" width="240" height="30" as="geometry" />
        </mxCell>
        
        <mxCell id="72" value="&lt;span style=&quot;font-size: 14px;&quot;&gt;➢ Influence of All = Exp.0- Exp.4&lt;/span&gt;" style="rounded=0;whiteSpace=wrap;html=1;fillColor=#f8cecc;strokeColor=#b85450;align=left;spacingLeft=10;fillOpacity=30;" vertex="1" parent="1">
          <mxGeometry x="820" y="550" width="240" height="30" as="geometry" />
        </mxCell>
        
        <mxCell id="73" value="&lt;span style=&quot;font-size: 14px;&quot;&gt;➢ Influence of Interaction = (Exp.0- Exp.4) - (Exp.0- Exp.1)- (Exp.0- Exp.2)- (Exp.0- Exp.3)&lt;/span&gt;" style="rounded=0;whiteSpace=wrap;html=1;fillColor=#f5f5f5;strokeColor=#666666;align=left;spacingLeft=10;fillOpacity=30;" vertex="1" parent="1">
          <mxGeometry x="820" y="590" width="240" height="60" as="geometry" />
        </mxCell>
        
        <!-- Connection arrows -->
        <mxCell id="74" value="" style="html=1;shadow=0;dashed=0;align=center;verticalAlign=middle;shape=mxgraph.arrows2.jumpInArrow;dy=15;dx=38;arrowHead=55;fillColor=none;strokeWidth=1.5;direction=west;" vertex="1" parent="1">
          <mxGeometry x="780" y="270" width="100" height="100" as="geometry" />
        </mxCell>
        
        <mxCell id="75" value="" style="html=1;shadow=0;dashed=0;align=center;verticalAlign=middle;shape=mxgraph.arrows2.jumpInArrow;dy=15;dx=38;arrowHead=55;fillColor=none;strokeWidth=1.5;direction=west;" vertex="1" parent="1">
          <mxGeometry x="780" y="510" width="100" height="100" as="geometry" />
        </mxCell>
      </root>
    </mxGraphModel>
  </diagram>
</mxfile>